# xmcd CD database file
# Copyright (C) 1993-1996 Ti Kan
#
# Track frame offsets:
# 150
# 14915
# 30140
# 48950
# 59800
# 75638
# 86090
# 110675
# 122953
# 139950
# 157153
# 173650
# 188028
# 199575
#
# Disc length: 2890 seconds
#
# Revision: 0
# Processed by: cddbd v1.4b41PL1 Copyright (c) Steve Scherf et al.
# Submitted via: inCDius 1.1b5
#
DISCID=c40b480e
DTITLE=Ricky Skaggs - My Favorite Hits
DYEAR=1900
DGENRE=
TTITLE0=Heartbroke
TTITLE1=Window Up Above
TTITLE2=San Antonio Rose
TTITLE3=Lonesome For You
TTITLE4=Honey Open That Door
TTITLE5=I Don't Care
TTITLE6=One Way Rider
TTITLE7=Let It Be You
TTITLE8=Sweet Temptation
TTITLE9=Artificial Heart
TTITLE10=A Wound Time Can't Erase
TTITLE11=I Wonder If I Care As  Much
TTITLE12=Only Daddy That'll Walk The Line
TTITLE13=Country Boy
EXTD=
EXTT0=
EXTT1=
EXTT2=
EXTT3=
EXTT4=
EXTT5=
EXTT6=
EXTT7=
EXTT8=
EXTT9=
EXTT10=
EXTT11=
EXTT12=
EXTT13=
PLAYORDER=
